<svg xmlns="http://www.w3.org/2000/svg" xmlns:xlink="http://www.w3.org/1999/xlink" width="500" zoomAndPan="magnify" viewBox="0 0 375 374.999991" height="500" preserveAspectRatio="xMidYMid meet" version="1.0"><defs><g/></defs><g fill="#ffffff" fill-opacity="1"><g transform="translate(64.21875, 218.952686)"><g><path d="M 10.835938 5.367188 C 11.457031 5.261719 11.972656 4.851562 11.972656 4.230469 C 11.972656 3.714844 11.972656 3.300781 11.867188 2.785156 C 11.042969 -3.921875 11.558594 -10.734375 12.386719 -17.441406 C 12.386719 -18.0625 12.488281 -18.785156 13.210938 -19.507812 L 16.101562 -17.546875 C 18.785156 -15.585938 21.570312 -13.726562 24.667969 -12.386719 C 28.792969 -10.628906 33.027344 -9.183594 37.359375 -8.050781 C 40.148438 -7.429688 42.933594 -6.8125 45.722656 -6.296875 C 46.753906 -6.089844 47.371094 -6.398438 47.578125 -7.121094 C 47.785156 -7.84375 47.269531 -8.464844 46.03125 -8.667969 C 43.140625 -9.082031 40.25 -9.90625 37.359375 -10.628906 C 29.105469 -12.695312 21.363281 -16.101562 14.65625 -21.570312 C 13.417969 -22.5 13.105469 -23.53125 13.417969 -24.976562 C 13.625 -26.113281 13.828125 -26.523438 15.066406 -26.523438 C 17.234375 -26.628906 19.402344 -26.832031 21.570312 -27.351562 C 29.929688 -29.105469 37.464844 -32.40625 43.554688 -38.597656 C 47.269531 -42.316406 49.953125 -46.648438 52.121094 -51.398438 C 53.875 -55.320312 54.492188 -59.449219 53.976562 -63.679688 C 53.769531 -66.15625 52.945312 -68.324219 51.5 -70.386719 C 49.539062 -73.175781 46.855469 -74.722656 43.347656 -74.722656 C 40.25 -74.722656 37.464844 -73.792969 34.882812 -72.453125 C 30.753906 -70.285156 27.246094 -67.394531 24.355469 -63.679688 C 21.054688 -59.449219 18.578125 -54.699219 16.925781 -49.644531 C 15.171875 -44.6875 14.035156 -39.527344 12.902344 -34.472656 C 12.488281 -33.027344 12.179688 -31.476562 11.867188 -30.035156 C 11.664062 -29.515625 11.351562 -29.105469 10.835938 -29.207031 C 10.21875 -29.207031 9.390625 -29.207031 9.183594 -30.035156 C 8.980469 -30.753906 8.875 -31.476562 8.773438 -32.304688 C 8.566406 -34.882812 8.359375 -37.566406 8.050781 -40.25 C 7.222656 -48.300781 6.707031 -56.351562 6.398438 -64.503906 C 6.296875 -67.085938 6.089844 -69.769531 5.882812 -72.453125 C 5.882812 -72.761719 5.882812 -73.070312 5.78125 -73.277344 C 5.574219 -73.792969 5.261719 -74.101562 4.746094 -74 C 4.128906 -74 3.820312 -73.691406 3.714844 -73.175781 C 3.613281 -72.554688 3.613281 -71.832031 3.613281 -71.214844 C 3.820312 -65.433594 4.128906 -59.757812 4.4375 -54.082031 C 4.644531 -50.984375 4.851562 -47.992188 5.160156 -44.894531 C 5.574219 -40.457031 5.984375 -36.019531 6.503906 -31.582031 C 6.605469 -30.238281 6.191406 -29.929688 4.851562 -30.34375 C 4.4375 -30.445312 4.128906 -30.550781 3.714844 -30.753906 C 2.992188 -30.960938 2.375 -31.375 1.652344 -31.582031 C 1.136719 -31.789062 0.722656 -31.683594 0.308594 -31.273438 C -0.101562 -30.753906 -0.101562 -30.136719 0.308594 -29.722656 C 0.722656 -29.207031 1.238281 -28.792969 1.753906 -28.382812 C 2.890625 -27.453125 4.023438 -26.628906 5.160156 -25.800781 C 6.605469 -24.871094 7.121094 -23.738281 7.222656 -22.085938 C 7.84375 -13.726562 8.667969 -5.367188 9.390625 2.992188 C 9.390625 3.507812 9.496094 3.921875 9.597656 4.4375 C 9.804688 4.953125 10.21875 5.367188 10.835938 5.367188 Z M 15.171875 -29.105469 C 14.757812 -29.105469 14.449219 -29.414062 14.449219 -29.828125 C 14.449219 -30.34375 14.550781 -30.753906 14.65625 -31.273438 C 15.789062 -36.535156 16.925781 -41.800781 18.578125 -46.960938 C 20.230469 -52.222656 22.5 -57.074219 25.800781 -61.511719 C 28.277344 -64.917969 31.375 -67.703125 35.089844 -69.769531 C 37.15625 -71.007812 39.425781 -71.832031 41.800781 -72.246094 C 45.203125 -72.761719 48.09375 -71.417969 49.953125 -68.324219 C 51.191406 -66.257812 51.808594 -63.679688 51.808594 -60.273438 C 51.707031 -58.210938 51.191406 -55.628906 50.160156 -53.152344 C 48.300781 -48.609375 45.722656 -44.378906 42.210938 -40.765625 C 37.050781 -35.195312 30.550781 -31.996094 23.324219 -30.238281 C 21.261719 -29.722656 19.195312 -29.414062 17.132812 -29.105469 C 16.511719 -29 15.789062 -29 15.171875 -29.105469 Z M 10.320312 -25.183594 C 9.90625 -25.285156 9.597656 -25.59375 9.597656 -26.113281 C 9.597656 -26.421875 9.804688 -26.628906 10.113281 -26.628906 C 10.734375 -26.730469 10.941406 -26.421875 11.042969 -25.800781 C 10.941406 -25.492188 10.835938 -25.078125 10.320312 -25.183594 Z M 10.113281 -21.054688 C 10.113281 -21.15625 10.011719 -21.261719 10.011719 -21.261719 C 10.113281 -21.570312 10.21875 -21.570312 10.320312 -21.363281 C 10.425781 -21.261719 10.320312 -21.15625 10.320312 -21.054688 Z M 10.113281 -21.054688 "/></g></g></g><g fill="#ffffff" fill-opacity="1"><g transform="translate(129.75526, 218.952686)"><g><path d="M 45.410156 -14.035156 C 49.230469 -14.449219 52.429688 -16.308594 55.421875 -18.679688 C 59.964844 -22.292969 63.371094 -26.832031 66.363281 -31.789062 C 66.570312 -32.199219 66.773438 -32.820312 66.980469 -33.335938 C 66.980469 -33.75 66.773438 -34.058594 66.464844 -34.265625 C 66.054688 -34.472656 65.742188 -34.472656 65.332031 -34.367188 C 64.8125 -34.058594 64.503906 -33.542969 64.296875 -33.027344 C 62.234375 -29.621094 59.757812 -26.421875 57.074219 -23.429688 C 55.113281 -21.363281 52.84375 -19.609375 50.367188 -18.164062 C 44.6875 -14.863281 35.605469 -15.480469 30.652344 -22.910156 C 29.105469 -25.183594 27.96875 -27.660156 27.246094 -30.34375 C 26.523438 -32.714844 26.007812 -35.195312 25.492188 -37.566406 C 25.285156 -38.394531 25.078125 -39.21875 24.5625 -39.941406 C 23.839844 -41.078125 22.808594 -41.386719 21.671875 -40.664062 C 21.054688 -40.25 20.433594 -39.734375 19.917969 -39.117188 C 19.195312 -38.1875 18.472656 -37.15625 17.855469 -36.121094 C 16.101562 -33.542969 14.449219 -30.960938 12.796875 -28.484375 C 11.972656 -27.246094 11.144531 -26.113281 10.011719 -25.183594 C 8.257812 -23.738281 6.8125 -23.945312 5.46875 -25.800781 C 4.4375 -27.246094 3.820312 -28.792969 3.613281 -30.550781 C 3.300781 -33.957031 3.820312 -37.257812 4.542969 -40.457031 C 4.644531 -41.078125 4.851562 -41.59375 4.851562 -42.109375 C 4.953125 -42.625 4.746094 -43.140625 4.230469 -43.242188 C 3.714844 -43.449219 3.097656 -43.242188 2.785156 -42.726562 C 2.582031 -42.316406 2.375 -41.902344 2.269531 -41.386719 C 1.652344 -38.597656 1.136719 -35.8125 1.03125 -32.921875 C 1.03125 -31.476562 1.238281 -30.136719 1.546875 -28.691406 C 1.960938 -26.9375 2.683594 -25.285156 3.820312 -23.839844 C 5.984375 -21.363281 8.566406 -21.054688 11.144531 -23.015625 C 11.972656 -23.632812 12.695312 -24.460938 13.417969 -25.183594 C 14.140625 -26.113281 14.863281 -27.144531 15.585938 -28.175781 C 17.027344 -30.34375 18.371094 -32.511719 19.816406 -34.675781 L 21.363281 -37.050781 C 21.671875 -37.464844 21.984375 -37.878906 22.5 -37.878906 C 23.015625 -37.773438 23.117188 -37.257812 23.222656 -36.742188 C 23.222656 -36.328125 23.324219 -35.917969 23.429688 -35.605469 C 23.945312 -33.4375 24.355469 -31.375 24.976562 -29.207031 C 26.007812 -26.007812 27.453125 -22.808594 29.722656 -20.125 C 33.75 -15.171875 39.117188 -13.3125 45.410156 -14.035156 Z M 45.410156 -14.035156 "/></g></g></g><g fill="#ffffff" fill-opacity="1"><g transform="translate(193.640456, 218.952686)"><g><path d="M 56.144531 -33.75 C 55.730469 -34.058594 55.214844 -34.160156 54.804688 -33.957031 C 54.492188 -33.75 54.183594 -33.542969 53.976562 -33.234375 C 53.253906 -32.40625 52.636719 -31.582031 52.015625 -30.753906 C 48.09375 -25.492188 43.761719 -20.746094 38.910156 -16.410156 C 36.636719 -14.347656 34.160156 -12.589844 31.476562 -11.144531 C 30.34375 -10.628906 29.207031 -10.011719 27.96875 -10.011719 C 21.363281 -9.703125 15.585938 -11.457031 11.25 -16.824219 C 9.289062 -19.195312 7.84375 -21.878906 6.605469 -24.667969 C 4.230469 -29.3125 3.921875 -31.582031 4.4375 -34.78125 C 4.4375 -34.367188 7.535156 -49.847656 8.980469 -62.75 L 46.445312 -62.75 C 47.992188 -62.75 48.09375 -64.8125 46.445312 -64.8125 L 9.183594 -64.8125 C 9.496094 -68.21875 9.703125 -71.417969 9.597656 -74 C 9.496094 -74.929688 9.183594 -75.859375 8.566406 -76.578125 C 7.429688 -78.023438 5.675781 -78.128906 4.335938 -76.992188 C 3.507812 -76.269531 2.992188 -75.339844 2.582031 -74.414062 C 1.445312 -71.832031 0.722656 -69.148438 0.414062 -66.464844 C 0.414062 -65.949219 0.308594 -65.332031 0.308594 -64.8125 L -23.015625 -64.8125 C -24.460938 -64.8125 -24.460938 -62.75 -23.015625 -62.75 L 0.101562 -62.75 C -0.929688 -47.683594 -1.859375 -32.820312 8.050781 -17.132812 C 11.457031 -11.972656 16.203125 -9.183594 21.984375 -7.945312 C 26.316406 -7.019531 30.550781 -7.535156 34.367188 -10.011719 C 36.742188 -11.558594 39.011719 -13.3125 41.179688 -15.171875 C 46.546875 -20.125 51.191406 -25.59375 55.527344 -31.476562 C 55.835938 -31.789062 56.042969 -32.199219 56.25 -32.613281 C 56.453125 -33.027344 56.351562 -33.4375 56.144531 -33.75 Z M 3.097656 -68.632812 C 3.507812 -70.695312 4.128906 -72.65625 5.261719 -74.515625 C 5.46875 -74.929688 5.882812 -75.238281 6.398438 -75.136719 C 6.914062 -75.03125 7.121094 -74.515625 7.121094 -74.101562 C 7.429688 -71.832031 7.429688 -68.53125 7.121094 -64.8125 L 2.582031 -64.8125 C 2.683594 -66.054688 2.890625 -67.394531 3.097656 -68.632812 Z M 2.0625 -59.035156 C 2.167969 -60.171875 2.269531 -61.410156 2.375 -62.75 L 6.914062 -62.75 C 5.984375 -53.566406 3.820312 -42.210938 2.683594 -35.8125 C 1.238281 -45.101562 2.0625 -57.898438 2.0625 -59.035156 Z M 2.0625 -59.035156 "/></g></g></g><g fill="#ffffff" fill-opacity="1"><g transform="translate(246.895328, 218.952686)"><g><path d="M 45.410156 -14.035156 C 49.230469 -14.449219 52.429688 -16.308594 55.421875 -18.679688 C 59.964844 -22.292969 63.371094 -26.832031 66.363281 -31.789062 C 66.570312 -32.199219 66.773438 -32.820312 66.980469 -33.335938 C 66.980469 -33.75 66.773438 -34.058594 66.464844 -34.265625 C 66.054688 -34.472656 65.742188 -34.472656 65.332031 -34.367188 C 64.8125 -34.058594 64.503906 -33.542969 64.296875 -33.027344 C 62.234375 -29.621094 59.757812 -26.421875 57.074219 -23.429688 C 55.113281 -21.363281 52.84375 -19.609375 50.367188 -18.164062 C 44.6875 -14.863281 35.605469 -15.480469 30.652344 -22.910156 C 29.105469 -25.183594 27.96875 -27.660156 27.246094 -30.34375 C 26.523438 -32.714844 26.007812 -35.195312 25.492188 -37.566406 C 25.285156 -38.394531 25.078125 -39.21875 24.5625 -39.941406 C 23.839844 -41.078125 22.808594 -41.386719 21.671875 -40.664062 C 21.054688 -40.25 20.433594 -39.734375 19.917969 -39.117188 C 19.195312 -38.1875 18.472656 -37.15625 17.855469 -36.121094 C 16.101562 -33.542969 14.449219 -30.960938 12.796875 -28.484375 C 11.972656 -27.246094 11.144531 -26.113281 10.011719 -25.183594 C 8.257812 -23.738281 6.8125 -23.945312 5.46875 -25.800781 C 4.4375 -27.246094 3.820312 -28.792969 3.613281 -30.550781 C 3.300781 -33.957031 3.820312 -37.257812 4.542969 -40.457031 C 4.644531 -41.078125 4.851562 -41.59375 4.851562 -42.109375 C 4.953125 -42.625 4.746094 -43.140625 4.230469 -43.242188 C 3.714844 -43.449219 3.097656 -43.242188 2.785156 -42.726562 C 2.582031 -42.316406 2.375 -41.902344 2.269531 -41.386719 C 1.652344 -38.597656 1.136719 -35.8125 1.03125 -32.921875 C 1.03125 -31.476562 1.238281 -30.136719 1.546875 -28.691406 C 1.960938 -26.9375 2.683594 -25.285156 3.820312 -23.839844 C 5.984375 -21.363281 8.566406 -21.054688 11.144531 -23.015625 C 11.972656 -23.632812 12.695312 -24.460938 13.417969 -25.183594 C 14.140625 -26.113281 14.863281 -27.144531 15.585938 -28.175781 C 17.027344 -30.34375 18.371094 -32.511719 19.816406 -34.675781 L 21.363281 -37.050781 C 21.671875 -37.464844 21.984375 -37.878906 22.5 -37.878906 C 23.015625 -37.773438 23.117188 -37.257812 23.222656 -36.742188 C 23.222656 -36.328125 23.324219 -35.917969 23.429688 -35.605469 C 23.945312 -33.4375 24.355469 -31.375 24.976562 -29.207031 C 26.007812 -26.007812 27.453125 -22.808594 29.722656 -20.125 C 33.75 -15.171875 39.117188 -13.3125 45.410156 -14.035156 Z M 45.410156 -14.035156 "/></g></g></g></svg>